<svg class="svg-icon" style="width: 100px; height: 40px;vertical-align: middle;fill: rgba(255,255,255,.6);overflow: hidden;" viewBox="0 0 1024 1024" version="1.1" xmlns="http://www.w3.org/2000/svg"><path d="M972.8 334.506667c0-3.413333-3.413333-3.413333-3.413333-6.826667-10.24-17.066667-23.893333-30.72-37.546667-44.373333-61.44-61.44-143.36-95.573333-228.693333-95.573334-68.266667 0-133.12 20.48-187.733334 61.44-3.413333-3.413333-6.826667-3.413333-10.24-6.826666-3.413333-3.413333-6.826667-3.413333-10.24-6.826667-6.826667-3.413333-13.653333-6.826667-17.066666-10.24l-20.48-10.24c-3.413333 0-6.826667-3.413333-6.826667-3.413333-13.653333-3.413333-20.48-6.826667-27.306667-6.826667-3.413333 0-6.826667-3.413333-10.24-3.413333-6.826667-3.413333-13.653333-3.413333-20.48-6.826667-3.413333 0-6.826667 0-10.24-3.413333-6.826667 0-13.653333-3.413333-20.48-3.413334H320.853333C146.773333 187.733333 0 334.506667 0 512s146.773333 324.266667 324.266667 324.266667h40.96c6.826667 0 13.653333-3.413333 20.48-3.413334 3.413333 0 6.826667 0 10.24-3.413333 6.826667 0 13.653333-3.413333 20.48-6.826667 3.413333 0 6.826667-3.413333 10.24-3.413333 6.826667-3.413333 13.653333-3.413333 20.48-6.826667 3.413333 0 6.826667-3.413333 6.826666-3.413333l20.48-10.24c6.826667-3.413333 13.653333-6.826667 17.066667-10.24 3.413333-3.413333 6.826667-3.413333 10.24-6.826667 3.413333-3.413333 6.826667-3.413333 10.24-6.826666 54.613333 37.546667 119.466667 61.44 187.733333 61.44 85.333333 0 167.253333-34.133333 228.693334-95.573334 109.226667-109.226667 126.293333-279.893333 44.373333-406.186666z m3.413333 262.826666h-337.92c3.413333-10.24 6.826667-23.893333 6.826667-34.133333h341.333333c-3.413333 10.24-6.826667 23.893333-10.24 34.133333z m-30.72 68.266667H610.986667c6.826667-10.24 10.24-23.893333 17.066666-34.133333h337.92c-6.826667 13.653333-13.653333 23.893333-20.48 34.133333zM614.4 512v17.066667h-204.8v-34.133334h204.8v17.066667z m-191.146667 85.333333c-3.413333-10.24-6.826667-23.893333-6.826666-34.133333h194.56c-3.413333 10.24-3.413333 23.893333-6.826667 34.133333h-180.906667z m-10.24-136.533333c3.413333-10.24 3.413333-23.893333 6.826667-34.133333h177.493333c3.413333 10.24 6.826667 23.893333 6.826667 34.133333h-191.146667z m225.28-34.133333h337.92c3.413333 10.24 6.826667 23.893333 6.826667 34.133333h-341.333333c0-10.24-3.413333-23.893333-3.413334-34.133333z m324.266667-34.133334h-337.92c-3.413333-10.24-10.24-23.893333-17.066667-34.133333h334.506667c10.24 10.24 17.066667 23.893333 20.48 34.133333z m-375.466667 0h-153.6c6.826667-13.653333 10.24-23.893333 20.48-34.133333H570.026667c6.826667 10.24 13.653333 23.893333 17.066666 34.133333z m-109.226666-68.266666c3.413333-6.826667 10.24-10.24 17.066666-17.066667l13.653334-13.653333h3.413333c10.24 10.24 23.893333 20.48 34.133333 34.133333l-68.266666-3.413333z m34.133333 409.6s0-3.413333 0 0c-6.826667-6.826667-13.653333-10.24-17.066667-17.066667l-17.066666-17.066667h68.266666c-10.24 10.24-20.48 23.893333-34.133333 34.133334z m-51.2-68.266667h-6.826667c-6.826667-10.24-13.653333-23.893333-20.48-34.133333h153.6c-6.826667 10.24-10.24 23.893333-17.066666 34.133333h-109.226667z m187.733333-136.533333V512v-17.066667h341.333334v34.133334H648.533333z m273.066667-204.8h-331.093333c-10.24-13.653333-17.066667-23.893333-27.306667-34.133334H887.466667c6.826667 6.826667 13.653333 10.24 17.066666 17.066667l17.066667 17.066667z m-85.333333-68.266667h-273.066667c40.96-23.893333 88.746667-34.133333 136.533333-34.133333s95.573333 10.24 136.533334 34.133333z m-273.066667 512h273.066667c-40.96 23.893333-88.746667 34.133333-136.533334 34.133333s-95.573333-10.24-136.533333-34.133333z m317.44-30.72c-3.413333-3.413333-6.826667-3.413333-10.24-3.413333h-310.613333c10.24-10.24 20.48-20.48 27.306666-34.133334H921.6c-3.413333 6.826667-10.24 10.24-17.066667 17.066667s-13.653333 13.653333-23.893333 20.48z" fill="" /></svg>