<svg class="svg-icon" style="width: 35px; height: 35px;vertical-align: middle;fill: rgba(255,255,255,.6);overflow: hidden;" viewBox="0 0 1024 1024" version="1.1" xmlns="http://www.w3.org/2000/svg"><path d="M871.978667 303.104a163.114667 163.114667 0 0 0-24.448-22.314667 201.6 201.6 0 0 0-49.365334-159.573333C751.914667 69.077333 673.066667 42.666667 563.797333 42.666667H298.709333a80.725333 80.725333 0 0 0-79.530666 67.925333l-110.506667 699.989333a65.408 65.408 0 0 0 64.682667 76.16h113.664l-3.498667 22.186667A62.592 62.592 0 0 0 345.301333 981.333333h138.026667a75.136 75.136 0 0 0 74.666667-62.72l27.349333-171.989333 0.469333-2.346667h12.757334c172.032 0 279.466667-85.034667 310.826666-245.845333a219.690667 219.690667 0 0 0-37.418666-195.328z m-537.386667 281.6l-30.464 193.493333-3.669333 23.210667H196.522667L302.805333 128h260.992c82.602667 0 141.568 17.237333 170.368 49.664a126.592 126.592 0 0 1 25.898667 116.608l-0.768 4.821333c-0.512 3.242667-0.981333 6.4-1.877333 10.496a249.429333 249.429333 0 0 1-85.546667 156.586667 284.885333 284.885333 0 0 1-179.925333 50.474667H414.165333a80.213333 80.213333 0 0 0-79.573333 68.053333z m491.093333-102.613333c-23.552 120.661333-95.701333 176.853333-227.114666 176.853333h-20.650667a75.136 75.136 0 0 0-74.666667 62.848l-27.733333 173.824L371.925333 896l20.394667-129.450667 26.112-164.394666h73.344c6.698667 0 12.586667-0.981333 19.114667-1.237334 15.317333-0.512 30.592-1.109333 44.928-2.901333 8.746667-1.066667 16.768-3.072 25.173333-4.608 11.648-2.133333 23.253333-4.266667 34.176-7.296 8.106667-2.261333 15.701333-5.205333 23.466667-7.936 10.154667-3.626667 20.224-7.424 29.738666-11.904 7.168-3.370667 13.994667-7.125333 20.736-10.965333a288.896 288.896 0 0 0 26.154667-16.725334c6.058667-4.352 12.032-8.874667 17.706667-13.653333a280.064 280.064 0 0 0 22.912-22.186667c4.821333-5.12 9.728-10.112 14.208-15.658666a302.506667 302.506667 0 0 0 20.48-29.568c3.242667-5.205333 6.869333-10.026667 9.898666-15.488a355.498667 355.498667 0 0 0 22.186667-49.237334c0.384-1.024 0.896-1.877333 1.28-2.901333 0.170667-0.426667 0.426667-0.853333 0.597333-1.365333a183.424 183.424 0 0 1 1.109334 93.568z"  /></svg>